<?xml version="1.0" encoding="UTF-8"?> <svg xmlns="http://www.w3.org/2000/svg" width="195" height="23" viewBox="0 0 195 23" fill="none"><g clip-path="url(#clip0_185_5606)"><path d="M54.9345 6.35242V16.2128H57.4459C58.0826 16.206 58.7117 16.0733 59.2973 15.8224C59.8829 15.5715 60.4136 15.2071 60.859 14.7503C61.3044 14.2934 61.6558 13.7529 61.8931 13.1596C62.1305 12.5663 62.2492 11.9319 62.2423 11.2926C62.2619 10.6633 62.1578 10.0364 61.9358 9.44761C61.7139 8.85884 61.3785 8.31979 60.9489 7.86131C60.5193 7.40284 60.0038 7.03393 59.4321 6.7757C58.8603 6.51747 58.2434 6.37499 57.6168 6.35642H54.9305L54.9345 6.35242ZM57.4459 3.25586C62.1271 3.25586 65.6678 6.81132 65.6678 11.2846C65.6678 15.7578 62.1271 19.3093 57.4459 19.3093H51.9223C51.8169 19.3093 51.7158 19.2673 51.6413 19.1924C51.5668 19.1176 51.5249 19.0161 51.5249 18.9103V3.67086C51.5249 3.56503 51.5668 3.46353 51.6413 3.3887C51.7158 3.31386 51.8169 3.27182 51.9223 3.27182L57.4459 3.25586Z" fill="#FF3008"></path><path d="M77.752 16.5574C78.791 16.5574 79.8067 16.248 80.6706 15.6683C81.5345 15.0887 82.2079 14.2648 82.6055 13.3008C83.0031 12.3369 83.1071 11.2762 82.9044 10.2529C82.7017 9.22958 82.2014 8.2896 81.4667 7.55183C80.732 6.81406 79.7959 6.31164 78.7769 6.10809C77.7578 5.90454 76.7015 6.00901 75.7416 6.40828C74.7816 6.80756 73.9612 7.48371 73.3839 8.35124C72.8067 9.21876 72.4986 10.2387 72.4986 11.2821C72.4986 12.6812 73.052 14.023 74.0373 15.0123C75.0225 16.0016 76.3587 16.5574 77.752 16.5574ZM77.752 2.91016C82.6597 2.91016 86.4308 6.69307 86.4308 11.29C86.4308 15.887 82.6597 19.6699 77.752 19.6699C72.8443 19.6699 69.0731 15.887 69.0731 11.29C69.0731 6.69307 72.8403 2.91016 77.752 2.91016Z" fill="#FF3008"></path><path d="M98.3842 16.5575C99.4232 16.5583 100.439 16.2496 101.303 15.6706C102.168 15.0916 102.842 14.2683 103.24 13.3046C103.638 12.341 103.743 11.2804 103.541 10.2569C103.339 9.23342 102.84 8.29307 102.106 7.55474C101.372 6.81641 100.436 6.31328 99.4169 6.10895C98.398 5.90463 97.3417 6.00829 96.3814 6.40684C95.4212 6.80539 94.6002 7.48092 94.0223 8.348C93.4444 9.21509 93.1355 10.2348 93.1347 11.2782C93.1379 12.6756 93.6918 14.015 94.6755 15.0035C95.6592 15.992 96.9925 16.5493 98.3842 16.5535V16.5575ZM98.3842 2.90625C103.296 2.90625 107.063 6.68917 107.063 11.2861C107.063 15.8831 103.296 19.666 98.3842 19.666C93.4725 19.666 89.7053 15.8831 89.7053 11.2861C89.7053 6.68917 93.4725 2.90625 98.3842 2.90625Z" fill="#FF3008"></path><path d="M118.567 6.35209H115.027V10.5939H118.567C118.84 10.6068 119.113 10.5652 119.37 10.4717C119.627 10.3782 119.863 10.2346 120.064 10.0491C120.265 9.86367 120.428 9.64002 120.543 9.39108C120.658 9.14214 120.722 8.87284 120.733 8.5987C120.735 8.57213 120.735 8.54545 120.733 8.51889C120.751 7.95962 120.548 7.41598 120.167 7.00743C119.786 6.59888 119.259 6.35886 118.702 6.34012H118.563L118.567 6.35209ZM111.601 3.67053C111.601 3.56469 111.643 3.4632 111.718 3.38836C111.792 3.31353 111.893 3.27148 111.999 3.27148H118.663C121.842 3.27148 124.147 5.60987 124.147 8.54682C124.158 9.52068 123.896 10.478 123.39 11.3093C122.885 12.1406 122.157 12.8123 121.289 13.2475L124.377 18.6905C124.406 18.7342 124.426 18.7832 124.437 18.8348C124.447 18.8864 124.447 18.9395 124.436 18.991C124.426 19.0426 124.406 19.0916 124.376 19.1352C124.347 19.1788 124.309 19.2161 124.266 19.2451C124.193 19.293 124.106 19.3154 124.019 19.309H121.317C121.243 19.3106 121.17 19.2913 121.106 19.2532C121.042 19.2151 120.99 19.1598 120.956 19.0935L117.995 13.6905H115.027V18.878C115.027 18.9839 114.985 19.0853 114.91 19.1602C114.836 19.235 114.735 19.2771 114.629 19.2771H112.03C111.925 19.2771 111.824 19.235 111.749 19.1602C111.675 19.0853 111.633 18.9839 111.633 18.878L111.601 3.67053Z" fill="#FF3008"></path><path d="M133.076 6.42656V16.2909H135.587C136.874 16.2751 138.101 15.7472 139.001 14.8232C139.9 13.8993 140.397 12.6546 140.384 11.3627C140.403 10.7341 140.298 10.1079 140.076 9.51987C139.854 8.93181 139.519 8.39341 139.09 7.93541C138.661 7.47741 138.146 7.10879 137.575 6.85058C137.004 6.59238 136.388 6.44965 135.762 6.43055H133.076V6.42656ZM135.587 3.33398C140.268 3.33398 143.809 6.88546 143.809 11.3587C143.809 15.832 140.272 19.3874 135.587 19.3874H130.064C129.958 19.3874 129.857 19.3454 129.783 19.2706C129.708 19.1957 129.666 19.0942 129.666 18.9884V3.74899C129.666 3.64316 129.708 3.54166 129.783 3.46682C129.857 3.39199 129.958 3.34995 130.064 3.34995L135.587 3.33398Z" fill="#FF3008"></path><path d="M154.252 7.24935L152.313 12.5247H156.195L154.252 7.24935ZM151.169 15.5055L149.897 19.0171C149.87 19.1004 149.816 19.1726 149.745 19.2223C149.673 19.2721 149.587 19.2967 149.5 19.2924H146.742C146.637 19.3024 146.532 19.2702 146.451 19.2029C146.37 19.1355 146.319 19.0386 146.309 18.9333C146.301 18.8608 146.313 18.7877 146.344 18.7218L152.305 3.50235C152.333 3.4205 152.388 3.35014 152.459 3.3019C152.531 3.25367 152.616 3.23018 152.702 3.23499H155.79C155.876 3.23018 155.962 3.25367 156.033 3.3019C156.105 3.35014 156.159 3.4205 156.187 3.50235L162.148 18.7218C162.171 18.7692 162.185 18.8207 162.188 18.8733C162.191 18.9259 162.183 18.9785 162.166 19.0282C162.148 19.0779 162.121 19.1237 162.086 19.1629C162.051 19.2021 162.009 19.2339 161.961 19.2565C161.896 19.2876 161.823 19.3 161.751 19.2924H158.993C158.906 19.2967 158.82 19.2721 158.748 19.2223C158.676 19.1726 158.623 19.1004 158.596 19.0171L157.324 15.5055H151.169Z" fill="#FF3008"></path><path d="M165.351 7.58297C165.351 5.06102 167.517 2.88225 170.946 2.88225C172.787 2.84567 174.57 3.52973 175.918 4.78967C175.994 4.868 176.037 4.9733 176.037 5.08297C176.037 5.19264 175.994 5.29794 175.918 5.37627L174.376 6.92056C174.304 6.99815 174.206 7.04423 174.101 7.04872C173.995 7.0532 173.893 7.01573 173.815 6.9445C173.088 6.28285 172.146 5.90978 171.165 5.89502C169.794 5.89502 168.781 6.6931 168.781 7.61489C168.781 10.5997 176.879 8.87985 176.879 14.6101C176.879 17.4792 174.71 19.658 170.827 19.658C169.758 19.6704 168.698 19.4705 167.706 19.0699C166.715 18.6693 165.812 18.0758 165.049 17.3236C164.975 17.2488 164.934 17.1477 164.934 17.0423C164.934 16.9368 164.975 16.8357 165.049 16.7609V16.741L166.527 15.2565C166.602 15.1822 166.703 15.1405 166.808 15.1405C166.913 15.1405 167.013 15.1822 167.088 15.2565C168.026 16.1626 169.275 16.6738 170.577 16.6851C172.293 16.6851 173.422 15.7673 173.422 14.6181C173.422 11.6372 165.327 13.3571 165.327 7.62287" fill="#FF3008"></path><path d="M191.571 3.65387V9.65945H184.72V3.67382C184.72 3.56799 184.678 3.46649 184.603 3.39165C184.529 3.31682 184.428 3.27478 184.322 3.27478H181.704C181.598 3.27478 181.497 3.31682 181.423 3.39165C181.348 3.46649 181.306 3.56799 181.306 3.67382V18.8733C181.304 18.9257 181.311 18.9782 181.329 19.0276C181.346 19.0771 181.373 19.1226 181.408 19.1615C181.444 19.2004 181.486 19.232 181.533 19.2544C181.58 19.2769 181.632 19.2898 181.684 19.2923H184.303C184.408 19.2923 184.509 19.2503 184.584 19.1754C184.658 19.1006 184.7 18.9991 184.7 18.8933V12.772H191.551V18.8733C191.548 18.9274 191.556 18.9814 191.575 19.0322C191.594 19.0829 191.623 19.1293 191.66 19.1685C191.697 19.2077 191.742 19.2389 191.791 19.2602C191.841 19.2814 191.894 19.2924 191.948 19.2923H194.583C194.637 19.295 194.691 19.2867 194.741 19.2679C194.792 19.249 194.838 19.2201 194.877 19.1827C194.916 19.1454 194.947 19.1005 194.968 19.0507C194.989 19.001 195 18.9474 195 18.8933V3.65387C195.003 3.59981 194.995 3.54577 194.976 3.49503C194.957 3.44429 194.928 3.39791 194.891 3.35871C194.854 3.31952 194.809 3.28833 194.76 3.26704C194.71 3.24575 194.657 3.23481 194.603 3.23487H191.968C191.914 3.23217 191.86 3.24049 191.81 3.25933C191.759 3.27816 191.713 3.30713 191.674 3.34446C191.635 3.38178 191.604 3.42669 191.583 3.47646C191.562 3.52622 191.551 3.57979 191.551 3.63392L191.571 3.65387Z" fill="#FF3008"></path><path d="M38.0018 5.33923C37.1434 3.72183 35.8622 2.37005 34.2959 1.42929C32.7295 0.488524 30.9374 -0.00560673 29.1123 4.79941e-05H0.961683C0.770865 0.00166408 0.584764 0.0597842 0.426692 0.167128C0.26862 0.274472 0.145604 0.426267 0.0730548 0.603498C0.000505136 0.78073 -0.0183529 0.975518 0.018843 1.16346C0.0560388 1.35141 0.147635 1.52415 0.282157 1.66006L6.41378 7.85319C6.68055 8.1251 6.99853 8.34099 7.3492 8.48829C7.69987 8.63558 8.07622 8.71133 8.45634 8.71113H28.3056C28.9844 8.70372 29.6382 8.96737 30.1234 9.44407C30.6085 9.92077 30.8852 10.5715 30.8926 11.253C30.9 11.9346 30.6374 12.5912 30.1627 13.0784C29.688 13.5655 29.04 13.8434 28.3613 13.8508H14.6754C14.4846 13.8524 14.2985 13.9105 14.1404 14.0179C13.9823 14.1252 13.8593 14.277 13.7868 14.4542C13.7142 14.6315 13.6953 14.8263 13.7325 15.0142C13.7697 15.2022 13.8613 15.3749 13.9959 15.5108L20.1275 21.7039C20.3958 21.9745 20.7148 22.1893 21.066 22.3358C21.4172 22.4823 21.7937 22.5578 22.174 22.5579H28.3613C36.4083 22.5579 42.4962 13.9146 38.0018 5.33923Z" fill="#FF3008"></path></g><defs><clipPath id="clip0_185_5606"><rect width="195" height="22.5578" fill="white"></rect></clipPath></defs></svg> 