<svg xmlns="http://www.w3.org/2000/svg" xmlns:xlink="http://www.w3.org/1999/xlink" width="500" zoomAndPan="magnify" viewBox="0 0 375 374.999991" height="500" preserveAspectRatio="xMidYMid meet" version="1.0"><defs><g/></defs><path fill="#000000" d="M 270.589844 375 L 104.410156 375 C 47.058594 375 0 327.941406 0 270.589844 L 0 104.410156 C 0 47.058594 47.058594 0 104.410156 0 L 270.589844 0 C 327.941406 0 375 47.058594 375 104.410156 L 375 270.589844 C 375 327.941406 327.941406 375 270.589844 375 Z M 104.410156 23.53125 C 60.292969 23.53125 23.53125 60.292969 23.53125 104.410156 L 23.53125 270.589844 C 23.53125 314.707031 60.292969 351.46875 104.410156 351.46875 L 270.589844 351.46875 C 314.707031 351.46875 351.46875 314.707031 351.46875 270.589844 L 351.46875 104.410156 C 351.46875 60.292969 314.707031 23.53125 270.589844 23.53125 Z M 104.410156 23.53125 " fill-opacity="1" fill-rule="evenodd"/><path fill="#000000" d="M 187.5 252.207031 C 152.207031 252.207031 122.792969 222.792969 122.792969 187.5 C 122.792969 152.207031 152.207031 122.792969 187.5 122.792969 C 222.792969 122.792969 252.207031 152.207031 252.207031 187.5 C 252.207031 222.792969 222.792969 252.207031 187.5 252.207031 Z M 187.5 146.324219 C 164.707031 146.324219 146.324219 164.707031 146.324219 187.5 C 146.324219 210.292969 164.707031 228.675781 187.5 228.675781 C 210.292969 228.675781 228.675781 210.292969 228.675781 187.5 C 228.675781 164.707031 210.292969 146.324219 187.5 146.324219 Z M 187.5 146.324219 " fill-opacity="1" fill-rule="evenodd"/><path fill="#000000" d="M 187.5 293.382812 C 129.410156 293.382812 81.617188 245.589844 81.617188 187.5 C 81.617188 129.410156 129.410156 81.617188 187.5 81.617188 C 245.589844 81.617188 293.382812 129.410156 293.382812 187.5 C 293.382812 245.589844 245.589844 293.382812 187.5 293.382812 Z M 187.5 105.148438 C 141.910156 105.148438 105.148438 141.910156 105.148438 187.5 C 105.148438 233.089844 141.910156 269.851562 187.5 269.851562 C 233.089844 269.851562 269.851562 233.089844 269.851562 187.5 C 269.851562 141.910156 233.089844 105.148438 187.5 105.148438 Z M 187.5 105.148438 " fill-opacity="1" fill-rule="evenodd"/><path fill="#000000" d="M 100.734375 86.765625 L 75 86.765625 C 68.382812 86.765625 63.234375 81.617188 63.234375 75 C 63.234375 68.382812 68.382812 63.234375 75 63.234375 L 100.734375 63.234375 C 107.351562 63.234375 112.5 68.382812 112.5 75 C 112.5 81.617188 107.351562 86.765625 100.734375 86.765625 Z M 100.734375 86.765625 " fill-opacity="1" fill-rule="evenodd"/><g fill="#000000" fill-opacity="1"><g transform="translate(134.523833, 183.849994)"><g><path d="M 4.46875 0.171875 C 3.78125 0.171875 3.171875 0.00390625 2.640625 -0.328125 C 2.109375 -0.660156 1.691406 -1.160156 1.390625 -1.828125 C 1.097656 -2.492188 0.953125 -3.320312 0.953125 -4.3125 C 0.953125 -5.289062 1.109375 -6.113281 1.421875 -6.78125 C 1.734375 -7.457031 2.160156 -7.957031 2.703125 -8.28125 C 3.253906 -8.613281 3.894531 -8.78125 4.625 -8.78125 C 5.195312 -8.78125 5.710938 -8.671875 6.171875 -8.453125 C 6.628906 -8.242188 7.019531 -7.890625 7.34375 -7.390625 L 7.515625 -7.421875 L 7.515625 -12.078125 L 8.78125 -12.078125 L 8.78125 0 L 7.515625 0 L 7.515625 -1.265625 L 7.34375 -1.296875 C 7.0625 -0.867188 6.679688 -0.515625 6.203125 -0.234375 C 5.722656 0.0351562 5.144531 0.171875 4.46875 0.171875 Z M 4.875 -0.984375 C 5.675781 -0.984375 6.316406 -1.253906 6.796875 -1.796875 C 7.273438 -2.347656 7.515625 -3.1875 7.515625 -4.3125 C 7.515625 -5.4375 7.273438 -6.269531 6.796875 -6.8125 C 6.316406 -7.363281 5.675781 -7.640625 4.875 -7.640625 C 4.039062 -7.640625 3.398438 -7.367188 2.953125 -6.828125 C 2.503906 -6.296875 2.28125 -5.457031 2.28125 -4.3125 C 2.28125 -2.09375 3.144531 -0.984375 4.875 -0.984375 Z M 4.875 -0.984375 "/></g></g></g></svg>