<svg xmlns="http://www.w3.org/2000/svg" xmlns:xlink="http://www.w3.org/1999/xlink" width="374" zoomAndPan="magnify" viewBox="0 0 280.5 76.499998" height="102" preserveAspectRatio="xMidYMid meet" version="1.0"><defs><g/></defs><g fill="#000000" fill-opacity="1"><g transform="translate(4.334142, 52.89529)"><g><path d="M 0.40625 -33.359375 L 0.40625 -41.703125 L 29.71875 -41.703125 L 29.71875 -33.359375 L 19.8125 -33.359375 L 19.8125 0 L 10.3125 0 L 10.3125 -33.359375 Z M 0.40625 -33.359375 "/></g></g></g><g fill="#000000" fill-opacity="1"><g transform="translate(29.70242, 52.89529)"><g><path d="M 29.265625 -11.734375 L 10.46875 -11.734375 C 10.46875 -9.910156 11.054688 -8.5625 12.234375 -7.6875 C 13.410156 -6.8125 14.691406 -6.375 16.078125 -6.375 C 17.523438 -6.375 18.671875 -6.566406 19.515625 -6.953125 C 20.359375 -7.335938 21.316406 -8.101562 22.390625 -9.25 L 28.859375 -6.015625 C 26.160156 -1.492188 21.679688 0.765625 15.421875 0.765625 C 11.503906 0.765625 8.144531 -0.570312 5.34375 -3.25 C 2.550781 -5.9375 1.15625 -9.164062 1.15625 -12.9375 C 1.15625 -16.707031 2.550781 -19.941406 5.34375 -22.640625 C 8.144531 -25.335938 11.503906 -26.6875 15.421875 -26.6875 C 19.523438 -26.6875 22.863281 -25.5 25.4375 -23.125 C 28.019531 -20.75 29.3125 -17.351562 29.3125 -12.9375 C 29.3125 -12.332031 29.296875 -11.929688 29.265625 -11.734375 Z M 10.71875 -16.6875 L 20.578125 -16.6875 C 20.367188 -18.03125 19.832031 -19.0625 18.96875 -19.78125 C 18.113281 -20.507812 17.015625 -20.875 15.671875 -20.875 C 14.191406 -20.875 13.007812 -20.484375 12.125 -19.703125 C 11.25 -18.929688 10.78125 -17.925781 10.71875 -16.6875 Z M 10.71875 -16.6875 "/></g></g></g><g fill="#000000" fill-opacity="1"><g transform="translate(55.424458, 52.89529)"><g><path d="M 3.03125 0 L 3.03125 -25.9375 L 11.984375 -25.9375 L 11.984375 -22.1875 L 12.078125 -22.1875 C 12.148438 -22.320312 12.257812 -22.488281 12.40625 -22.6875 C 12.5625 -22.894531 12.890625 -23.25 13.390625 -23.75 C 13.898438 -24.257812 14.441406 -24.71875 15.015625 -25.125 C 15.585938 -25.53125 16.328125 -25.890625 17.234375 -26.203125 C 18.140625 -26.523438 19.066406 -26.6875 20.015625 -26.6875 C 20.992188 -26.6875 21.953125 -26.550781 22.890625 -26.28125 C 23.835938 -26.007812 24.53125 -25.738281 24.96875 -25.46875 L 25.671875 -25.078125 L 21.9375 -17.484375 C 20.820312 -18.429688 19.269531 -18.90625 17.28125 -18.90625 C 16.207031 -18.90625 15.28125 -18.664062 14.5 -18.1875 C 13.726562 -17.71875 13.179688 -17.144531 12.859375 -16.46875 C 12.546875 -15.800781 12.320312 -15.226562 12.1875 -14.75 C 12.050781 -14.28125 11.984375 -13.910156 11.984375 -13.640625 L 11.984375 0 Z M 3.03125 0 "/></g></g></g><g fill="#000000" fill-opacity="1"><g transform="translate(75.840094, 52.89529)"><g><path d="M 29.265625 -11.734375 L 10.46875 -11.734375 C 10.46875 -9.910156 11.054688 -8.5625 12.234375 -7.6875 C 13.410156 -6.8125 14.691406 -6.375 16.078125 -6.375 C 17.523438 -6.375 18.671875 -6.566406 19.515625 -6.953125 C 20.359375 -7.335938 21.316406 -8.101562 22.390625 -9.25 L 28.859375 -6.015625 C 26.160156 -1.492188 21.679688 0.765625 15.421875 0.765625 C 11.503906 0.765625 8.144531 -0.570312 5.34375 -3.25 C 2.550781 -5.9375 1.15625 -9.164062 1.15625 -12.9375 C 1.15625 -16.707031 2.550781 -19.941406 5.34375 -22.640625 C 8.144531 -25.335938 11.503906 -26.6875 15.421875 -26.6875 C 19.523438 -26.6875 22.863281 -25.5 25.4375 -23.125 C 28.019531 -20.75 29.3125 -17.351562 29.3125 -12.9375 C 29.3125 -12.332031 29.296875 -11.929688 29.265625 -11.734375 Z M 10.71875 -16.6875 L 20.578125 -16.6875 C 20.367188 -18.03125 19.832031 -19.0625 18.96875 -19.78125 C 18.113281 -20.507812 17.015625 -20.875 15.671875 -20.875 C 14.191406 -20.875 13.007812 -20.484375 12.125 -19.703125 C 11.25 -18.929688 10.78125 -17.925781 10.71875 -16.6875 Z M 10.71875 -16.6875 "/></g></g></g><g fill="#000000" fill-opacity="1"><g transform="translate(101.562133, 52.89529)"><g><path d="M 14.3125 -26.6875 C 15.789062 -26.6875 17.253906 -26.515625 18.703125 -26.171875 C 20.148438 -25.835938 21.226562 -25.503906 21.9375 -25.171875 L 23 -24.671875 L 20.0625 -18.796875 C 18.039062 -19.878906 16.125 -20.421875 14.3125 -20.421875 C 13.289062 -20.421875 12.570312 -20.3125 12.15625 -20.09375 C 11.738281 -19.875 11.53125 -19.460938 11.53125 -18.859375 C 11.53125 -18.722656 11.546875 -18.585938 11.578125 -18.453125 C 11.609375 -18.316406 11.671875 -18.1875 11.765625 -18.0625 C 11.867188 -17.945312 11.960938 -17.847656 12.046875 -17.765625 C 12.140625 -17.679688 12.285156 -17.585938 12.484375 -17.484375 C 12.679688 -17.390625 12.835938 -17.316406 12.953125 -17.265625 C 13.078125 -17.210938 13.273438 -17.132812 13.546875 -17.03125 C 13.816406 -16.925781 14.019531 -16.847656 14.15625 -16.796875 C 14.289062 -16.753906 14.515625 -16.679688 14.828125 -16.578125 C 15.148438 -16.472656 15.394531 -16.40625 15.5625 -16.375 C 16.613281 -16.070312 17.523438 -15.734375 18.296875 -15.359375 C 19.066406 -14.992188 19.878906 -14.488281 20.734375 -13.84375 C 21.597656 -13.207031 22.265625 -12.398438 22.734375 -11.421875 C 23.210938 -10.441406 23.453125 -9.332031 23.453125 -8.09375 C 23.453125 -2.1875 19.359375 0.765625 11.171875 0.765625 C 9.316406 0.765625 7.554688 0.476562 5.890625 -0.09375 C 4.222656 -0.664062 3.019531 -1.238281 2.28125 -1.8125 L 1.15625 -2.734375 L 4.796875 -8.84375 C 5.066406 -8.601562 5.421875 -8.320312 5.859375 -8 C 6.296875 -7.6875 7.085938 -7.25 8.234375 -6.6875 C 9.378906 -6.132812 10.375 -5.859375 11.21875 -5.859375 C 13.070312 -5.859375 14 -6.484375 14 -7.734375 C 14 -8.304688 13.765625 -8.75 13.296875 -9.0625 C 12.828125 -9.382812 12.023438 -9.75 10.890625 -10.15625 C 9.765625 -10.5625 8.878906 -10.929688 8.234375 -11.265625 C 6.617188 -12.109375 5.335938 -13.0625 4.390625 -14.125 C 3.453125 -15.1875 2.984375 -16.59375 2.984375 -18.34375 C 2.984375 -20.976562 4 -23.023438 6.03125 -24.484375 C 8.070312 -25.953125 10.832031 -26.6875 14.3125 -26.6875 Z M 14.3125 -26.6875 "/></g></g></g><g fill="#000000" fill-opacity="1"><g transform="translate(121.674553, 52.89529)"><g><path d="M 4.796875 -3.203125 C 2.367188 -5.847656 1.15625 -9.09375 1.15625 -12.9375 C 1.15625 -16.78125 2.367188 -20.03125 4.796875 -22.6875 C 7.222656 -25.351562 10.304688 -26.6875 14.046875 -26.6875 C 17.484375 -26.6875 20.316406 -25.609375 22.546875 -23.453125 L 22.546875 -25.9375 L 31.484375 -25.9375 L 31.484375 0 L 22.640625 0 L 22.640625 -2.9375 L 22.546875 -2.9375 C 20.316406 -0.46875 17.484375 0.765625 14.046875 0.765625 C 10.304688 0.765625 7.222656 -0.554688 4.796875 -3.203125 Z M 12.40625 -17.34375 C 11.25 -16.195312 10.671875 -14.726562 10.671875 -12.9375 C 10.671875 -11.15625 11.222656 -9.695312 12.328125 -8.5625 C 13.441406 -7.4375 14.910156 -6.875 16.734375 -6.875 C 18.484375 -6.875 19.921875 -7.445312 21.046875 -8.59375 C 22.179688 -9.738281 22.75 -11.1875 22.75 -12.9375 C 22.75 -14.726562 22.164062 -16.195312 21 -17.34375 C 19.84375 -18.488281 18.421875 -19.0625 16.734375 -19.0625 C 15.015625 -19.0625 13.570312 -18.488281 12.40625 -17.34375 Z M 12.40625 -17.34375 "/></g></g></g><g fill="#000000" fill-opacity="1"><g transform="translate(151.439563, 52.89529)"><g><path d="M 3.03125 0 L 3.03125 -25.9375 L 11.984375 -25.9375 L 11.984375 -23.203125 L 12.078125 -23.203125 C 14.398438 -25.523438 16.878906 -26.6875 19.515625 -26.6875 C 21.398438 -26.6875 23.164062 -26.296875 24.8125 -25.515625 C 26.46875 -24.742188 27.71875 -23.550781 28.5625 -21.9375 C 31.1875 -25.101562 34.050781 -26.6875 37.15625 -26.6875 C 39.914062 -26.6875 42.289062 -25.910156 44.28125 -24.359375 C 46.269531 -22.804688 47.265625 -20.378906 47.265625 -17.078125 L 47.265625 0 L 38.3125 0 L 38.3125 -14.65625 C 38.3125 -16.039062 37.929688 -17.195312 37.171875 -18.125 C 36.421875 -19.050781 35.285156 -19.515625 33.765625 -19.515625 C 32.453125 -19.515625 31.445312 -19.117188 30.75 -18.328125 C 30.0625 -17.535156 29.6875 -16.582031 29.625 -15.46875 L 29.625 0 L 20.671875 0 L 20.671875 -14.65625 C 20.671875 -16.039062 20.289062 -17.195312 19.53125 -18.125 C 18.78125 -19.050781 17.644531 -19.515625 16.125 -19.515625 C 14.738281 -19.515625 13.703125 -19.082031 13.015625 -18.21875 C 12.328125 -17.363281 11.984375 -16.347656 11.984375 -15.171875 L 11.984375 0 Z M 3.03125 0 "/></g></g></g><g fill="#000000" fill-opacity="1"><g transform="translate(196.466808, 52.89529)"><g><path d="M 29.265625 -11.734375 L 10.46875 -11.734375 C 10.46875 -9.910156 11.054688 -8.5625 12.234375 -7.6875 C 13.410156 -6.8125 14.691406 -6.375 16.078125 -6.375 C 17.523438 -6.375 18.671875 -6.566406 19.515625 -6.953125 C 20.359375 -7.335938 21.316406 -8.101562 22.390625 -9.25 L 28.859375 -6.015625 C 26.160156 -1.492188 21.679688 0.765625 15.421875 0.765625 C 11.503906 0.765625 8.144531 -0.570312 5.34375 -3.25 C 2.550781 -5.9375 1.15625 -9.164062 1.15625 -12.9375 C 1.15625 -16.707031 2.550781 -19.941406 5.34375 -22.640625 C 8.144531 -25.335938 11.503906 -26.6875 15.421875 -26.6875 C 19.523438 -26.6875 22.863281 -25.5 25.4375 -23.125 C 28.019531 -20.75 29.3125 -17.351562 29.3125 -12.9375 C 29.3125 -12.332031 29.296875 -11.929688 29.265625 -11.734375 Z M 10.71875 -16.6875 L 20.578125 -16.6875 C 20.367188 -18.03125 19.832031 -19.0625 18.96875 -19.78125 C 18.113281 -20.507812 17.015625 -20.875 15.671875 -20.875 C 14.191406 -20.875 13.007812 -20.484375 12.125 -19.703125 C 11.25 -18.929688 10.78125 -17.925781 10.71875 -16.6875 Z M 10.71875 -16.6875 "/></g></g></g><g fill="#000000" fill-opacity="1"><g transform="translate(222.188851, 52.89529)"><g><path d="M 4.796875 -3.203125 C 2.367188 -5.847656 1.15625 -9.09375 1.15625 -12.9375 C 1.15625 -16.78125 2.367188 -20.03125 4.796875 -22.6875 C 7.222656 -25.351562 10.304688 -26.6875 14.046875 -26.6875 C 17.484375 -26.6875 20.316406 -25.609375 22.546875 -23.453125 L 22.546875 -43.46875 L 31.484375 -43.46875 L 31.484375 0 L 22.640625 0 L 22.640625 -2.9375 L 22.546875 -2.9375 C 20.316406 -0.46875 17.484375 0.765625 14.046875 0.765625 C 10.304688 0.765625 7.222656 -0.554688 4.796875 -3.203125 Z M 12.40625 -17.34375 C 11.25 -16.195312 10.671875 -14.726562 10.671875 -12.9375 C 10.671875 -11.15625 11.222656 -9.695312 12.328125 -8.5625 C 13.441406 -7.4375 14.910156 -6.875 16.734375 -6.875 C 18.484375 -6.875 19.921875 -7.445312 21.046875 -8.59375 C 22.179688 -9.738281 22.75 -11.1875 22.75 -12.9375 C 22.75 -14.726562 22.164062 -16.195312 21 -17.34375 C 19.84375 -18.488281 18.421875 -19.0625 16.734375 -19.0625 C 15.015625 -19.0625 13.570312 -18.488281 12.40625 -17.34375 Z M 12.40625 -17.34375 "/></g></g></g><g fill="#000000" fill-opacity="1"><g transform="translate(251.953861, 52.89529)"><g/></g></g><g fill="#000000" fill-opacity="1"><g transform="translate(260.99863, 52.89529)"><g><path d="M 8.796875 -10.8125 C 10.410156 -10.8125 11.78125 -10.25 12.90625 -9.125 C 14.039062 -8 14.609375 -6.625 14.609375 -5 C 14.609375 -3.414062 14.039062 -2.054688 12.90625 -0.921875 C 11.78125 0.203125 10.410156 0.765625 8.796875 0.765625 C 7.210938 0.765625 5.851562 0.203125 4.71875 -0.921875 C 3.59375 -2.054688 3.03125 -3.414062 3.03125 -5 C 3.03125 -6.625 3.59375 -8 4.71875 -9.125 C 5.851562 -10.25 7.210938 -10.8125 8.796875 -10.8125 Z M 8.796875 -10.8125 "/></g></g></g><g fill="#000000" fill-opacity="1"><g transform="translate(78.21654, 67.458094)"><g><path d="M 5.96875 -7.125 C 6.113281 -7.125 6.234375 -7.078125 6.328125 -6.984375 C 6.429688 -6.890625 6.484375 -6.769531 6.484375 -6.625 L 6.484375 -0.5 C 6.472656 -0.351562 6.421875 -0.234375 6.328125 -0.140625 C 6.234375 -0.046875 6.109375 0 5.953125 0 C 5.816406 0 5.703125 -0.046875 5.609375 -0.140625 C 5.515625 -0.234375 5.46875 -0.351562 5.46875 -0.5 L 5.46875 -3.140625 L 1.84375 -3.140625 L 1.84375 -0.5 C 1.84375 -0.351562 1.789062 -0.234375 1.6875 -0.140625 C 1.59375 -0.046875 1.476562 0 1.34375 0 C 1.195312 0 1.078125 -0.046875 0.984375 -0.140625 C 0.890625 -0.234375 0.84375 -0.351562 0.84375 -0.5 L 0.84375 -6.625 C 0.84375 -6.757812 0.890625 -6.875 0.984375 -6.96875 C 1.078125 -7.070312 1.203125 -7.125 1.359375 -7.125 C 1.492188 -7.125 1.609375 -7.070312 1.703125 -6.96875 C 1.796875 -6.875 1.84375 -6.757812 1.84375 -6.625 L 1.84375 -4.0625 L 5.46875 -4.0625 L 5.46875 -6.625 C 5.46875 -6.757812 5.515625 -6.875 5.609375 -6.96875 C 5.710938 -7.070312 5.832031 -7.125 5.96875 -7.125 Z M 5.96875 -7.125 "/></g></g></g><g fill="#000000" fill-opacity="1"><g transform="translate(92.160333, 67.458094)"><g><path d="M 5.40625 -2.875 C 5.394531 -2.75 5.34375 -2.644531 5.25 -2.5625 C 5.15625 -2.476562 5.039062 -2.4375 4.90625 -2.4375 L 1.328125 -2.4375 C 1.378906 -1.9375 1.566406 -1.535156 1.890625 -1.234375 C 2.222656 -0.941406 2.628906 -0.796875 3.109375 -0.796875 C 3.429688 -0.796875 3.691406 -0.84375 3.890625 -0.9375 C 4.097656 -1.03125 4.28125 -1.148438 4.4375 -1.296875 C 4.539062 -1.359375 4.640625 -1.390625 4.734375 -1.390625 C 4.847656 -1.390625 4.941406 -1.347656 5.015625 -1.265625 C 5.097656 -1.191406 5.140625 -1.097656 5.140625 -0.984375 C 5.140625 -0.835938 5.070312 -0.707031 4.9375 -0.59375 C 4.738281 -0.40625 4.472656 -0.238281 4.140625 -0.09375 C 3.816406 0.0390625 3.488281 0.109375 3.15625 0.109375 C 2.601562 0.109375 2.117188 -0.00390625 1.703125 -0.234375 C 1.285156 -0.472656 0.960938 -0.796875 0.734375 -1.203125 C 0.503906 -1.617188 0.390625 -2.085938 0.390625 -2.609375 C 0.390625 -3.179688 0.503906 -3.679688 0.734375 -4.109375 C 0.972656 -4.546875 1.285156 -4.878906 1.671875 -5.109375 C 2.054688 -5.335938 2.46875 -5.453125 2.90625 -5.453125 C 3.34375 -5.453125 3.75 -5.335938 4.125 -5.109375 C 4.507812 -4.890625 4.816406 -4.582031 5.046875 -4.1875 C 5.273438 -3.789062 5.394531 -3.351562 5.40625 -2.875 Z M 2.90625 -4.5625 C 2.53125 -4.5625 2.203125 -4.453125 1.921875 -4.234375 C 1.640625 -4.023438 1.457031 -3.695312 1.375 -3.25 L 4.375 -3.25 L 4.375 -3.328125 C 4.34375 -3.679688 4.179688 -3.972656 3.890625 -4.203125 C 3.597656 -4.441406 3.269531 -4.5625 2.90625 -4.5625 Z M 2.90625 -4.5625 "/></g></g></g><g fill="#000000" fill-opacity="1"><g transform="translate(104.58916, 67.458094)"><g><path d="M 5.046875 -5.40625 C 5.191406 -5.40625 5.304688 -5.359375 5.390625 -5.265625 C 5.484375 -5.171875 5.53125 -5.050781 5.53125 -4.90625 L 5.53125 -0.484375 C 5.53125 -0.347656 5.484375 -0.234375 5.390625 -0.140625 C 5.304688 -0.046875 5.191406 0 5.046875 0 C 4.898438 0 4.78125 -0.046875 4.6875 -0.140625 C 4.601562 -0.234375 4.5625 -0.347656 4.5625 -0.484375 L 4.5625 -0.75 C 4.382812 -0.507812 4.144531 -0.304688 3.84375 -0.140625 C 3.539062 0.0234375 3.210938 0.109375 2.859375 0.109375 C 2.398438 0.109375 1.976562 -0.0078125 1.59375 -0.25 C 1.21875 -0.488281 0.921875 -0.816406 0.703125 -1.234375 C 0.492188 -1.660156 0.390625 -2.140625 0.390625 -2.671875 C 0.390625 -3.203125 0.492188 -3.675781 0.703125 -4.09375 C 0.921875 -4.519531 1.21875 -4.851562 1.59375 -5.09375 C 1.96875 -5.332031 2.378906 -5.453125 2.828125 -5.453125 C 3.179688 -5.453125 3.515625 -5.375 3.828125 -5.21875 C 4.140625 -5.070312 4.382812 -4.882812 4.5625 -4.65625 L 4.5625 -4.90625 C 4.5625 -5.039062 4.601562 -5.15625 4.6875 -5.25 C 4.78125 -5.351562 4.898438 -5.40625 5.046875 -5.40625 Z M 2.96875 -0.796875 C 3.289062 -0.796875 3.570312 -0.875 3.8125 -1.03125 C 4.0625 -1.195312 4.253906 -1.421875 4.390625 -1.703125 C 4.535156 -1.992188 4.609375 -2.316406 4.609375 -2.671875 C 4.609375 -3.023438 4.535156 -3.34375 4.390625 -3.625 C 4.253906 -3.914062 4.0625 -4.144531 3.8125 -4.3125 C 3.570312 -4.476562 3.289062 -4.5625 2.96875 -4.5625 C 2.644531 -4.5625 2.359375 -4.476562 2.109375 -4.3125 C 1.867188 -4.144531 1.675781 -3.921875 1.53125 -3.640625 C 1.394531 -3.359375 1.328125 -3.035156 1.328125 -2.671875 C 1.328125 -2.316406 1.394531 -1.992188 1.53125 -1.703125 C 1.675781 -1.421875 1.867188 -1.195312 2.109375 -1.03125 C 2.359375 -0.875 2.644531 -0.796875 2.96875 -0.796875 Z M 2.96875 -0.796875 "/></g></g></g><g fill="#000000" fill-opacity="1"><g transform="translate(117.465369, 67.458094)"><g><path d="M 1.765625 -0.484375 C 1.765625 -0.347656 1.71875 -0.234375 1.625 -0.140625 C 1.53125 -0.046875 1.414062 0 1.28125 0 C 1.144531 0 1.03125 -0.046875 0.9375 -0.140625 C 0.84375 -0.234375 0.796875 -0.347656 0.796875 -0.484375 L 0.796875 -7.03125 C 0.796875 -7.175781 0.84375 -7.296875 0.9375 -7.390625 C 1.039062 -7.484375 1.160156 -7.53125 1.296875 -7.53125 C 1.429688 -7.53125 1.539062 -7.484375 1.625 -7.390625 C 1.71875 -7.296875 1.765625 -7.175781 1.765625 -7.03125 Z M 1.765625 -0.484375 "/></g></g></g><g fill="#000000" fill-opacity="1"><g transform="translate(126.67109, 67.458094)"><g><path d="M 2.171875 -4.390625 L 2.171875 -1.359375 C 2.171875 -1.015625 2.320312 -0.84375 2.625 -0.84375 C 2.675781 -0.84375 2.738281 -0.851562 2.8125 -0.875 C 2.894531 -0.90625 2.960938 -0.921875 3.015625 -0.921875 C 3.097656 -0.921875 3.171875 -0.878906 3.234375 -0.796875 C 3.296875 -0.722656 3.328125 -0.628906 3.328125 -0.515625 C 3.328125 -0.378906 3.242188 -0.257812 3.078125 -0.15625 C 2.921875 -0.0507812 2.738281 0 2.53125 0 C 2.3125 0 2.109375 -0.0195312 1.921875 -0.0625 C 1.734375 -0.113281 1.566406 -0.234375 1.421875 -0.421875 C 1.273438 -0.617188 1.203125 -0.914062 1.203125 -1.3125 L 1.203125 -4.390625 L 0.609375 -4.390625 C 0.484375 -4.390625 0.375 -4.429688 0.28125 -4.515625 C 0.195312 -4.597656 0.15625 -4.703125 0.15625 -4.828125 C 0.15625 -4.960938 0.195312 -5.066406 0.28125 -5.140625 C 0.375 -5.222656 0.484375 -5.265625 0.609375 -5.265625 L 1.203125 -5.265625 L 1.203125 -6.125 C 1.203125 -6.257812 1.242188 -6.375 1.328125 -6.46875 C 1.421875 -6.5625 1.539062 -6.609375 1.6875 -6.609375 C 1.820312 -6.609375 1.9375 -6.5625 2.03125 -6.46875 C 2.125 -6.375 2.171875 -6.257812 2.171875 -6.125 L 2.171875 -5.265625 L 3.015625 -5.265625 C 3.140625 -5.265625 3.242188 -5.222656 3.328125 -5.140625 C 3.410156 -5.054688 3.453125 -4.953125 3.453125 -4.828125 C 3.453125 -4.691406 3.410156 -4.582031 3.328125 -4.5 C 3.242188 -4.425781 3.140625 -4.390625 3.015625 -4.390625 Z M 2.171875 -4.390625 "/></g></g></g><g fill="#000000" fill-opacity="1"><g transform="translate(137.168092, 67.458094)"><g><path d="M 3.375 -5.421875 C 4.570312 -5.421875 5.171875 -4.679688 5.171875 -3.203125 L 5.171875 -0.484375 C 5.171875 -0.347656 5.125 -0.234375 5.03125 -0.140625 C 4.9375 -0.046875 4.816406 0 4.671875 0 C 4.535156 0 4.421875 -0.046875 4.328125 -0.140625 C 4.242188 -0.234375 4.203125 -0.347656 4.203125 -0.484375 L 4.203125 -3.203125 C 4.203125 -4.085938 3.828125 -4.53125 3.078125 -4.53125 C 2.679688 -4.53125 2.347656 -4.398438 2.078125 -4.140625 C 1.816406 -3.890625 1.6875 -3.578125 1.6875 -3.203125 L 1.6875 -0.484375 C 1.6875 -0.347656 1.640625 -0.234375 1.546875 -0.140625 C 1.453125 -0.046875 1.335938 0 1.203125 0 C 1.054688 0 0.9375 -0.046875 0.84375 -0.140625 C 0.757812 -0.234375 0.71875 -0.347656 0.71875 -0.484375 L 0.71875 -7.03125 C 0.71875 -7.175781 0.765625 -7.296875 0.859375 -7.390625 C 0.953125 -7.484375 1.066406 -7.53125 1.203125 -7.53125 C 1.335938 -7.53125 1.453125 -7.484375 1.546875 -7.390625 C 1.640625 -7.296875 1.6875 -7.175781 1.6875 -7.03125 L 1.6875 -4.46875 C 1.851562 -4.726562 2.085938 -4.953125 2.390625 -5.140625 C 2.703125 -5.328125 3.03125 -5.421875 3.375 -5.421875 Z M 3.375 -5.421875 "/></g></g></g><g fill="#000000" fill-opacity="1"><g transform="translate(149.688428, 67.458094)"><g/></g></g><g fill="#000000" fill-opacity="1"><g transform="translate(159.138168, 67.458094)"><g><path d="M 5.921875 -6.703125 C 6.085938 -6.617188 6.171875 -6.484375 6.171875 -6.296875 C 6.171875 -6.171875 6.128906 -6.054688 6.046875 -5.953125 C 5.960938 -5.847656 5.847656 -5.796875 5.703125 -5.796875 C 5.609375 -5.796875 5.519531 -5.820312 5.4375 -5.875 C 5.007812 -6.101562 4.550781 -6.21875 4.0625 -6.21875 C 3.5625 -6.21875 3.113281 -6.101562 2.71875 -5.875 C 2.332031 -5.65625 2.03125 -5.34375 1.8125 -4.9375 C 1.59375 -4.539062 1.484375 -4.082031 1.484375 -3.5625 C 1.484375 -3 1.59375 -2.515625 1.8125 -2.109375 C 2.039062 -1.703125 2.351562 -1.390625 2.75 -1.171875 C 3.144531 -0.960938 3.582031 -0.859375 4.0625 -0.859375 C 4.570312 -0.859375 5.03125 -0.976562 5.4375 -1.21875 C 5.507812 -1.257812 5.597656 -1.28125 5.703125 -1.28125 C 5.847656 -1.28125 5.960938 -1.222656 6.046875 -1.109375 C 6.128906 -1.003906 6.171875 -0.894531 6.171875 -0.78125 C 6.171875 -0.695312 6.148438 -0.617188 6.109375 -0.546875 C 6.066406 -0.484375 6.007812 -0.429688 5.9375 -0.390625 C 5.664062 -0.234375 5.363281 -0.109375 5.03125 -0.015625 C 4.707031 0.0664062 4.382812 0.109375 4.0625 0.109375 C 3.40625 0.109375 2.800781 -0.0351562 2.25 -0.328125 C 1.695312 -0.617188 1.253906 -1.039062 0.921875 -1.59375 C 0.597656 -2.15625 0.4375 -2.8125 0.4375 -3.5625 C 0.4375 -4.25 0.59375 -4.867188 0.90625 -5.421875 C 1.226562 -5.972656 1.664062 -6.40625 2.21875 -6.71875 C 2.769531 -7.03125 3.382812 -7.1875 4.0625 -7.1875 C 4.726562 -7.1875 5.347656 -7.023438 5.921875 -6.703125 Z M 5.921875 -6.703125 "/></g></g></g><g fill="#000000" fill-opacity="1"><g transform="translate(172.258395, 67.458094)"><g><path d="M 5.046875 -5.40625 C 5.191406 -5.40625 5.304688 -5.359375 5.390625 -5.265625 C 5.484375 -5.171875 5.53125 -5.050781 5.53125 -4.90625 L 5.53125 -0.484375 C 5.53125 -0.347656 5.484375 -0.234375 5.390625 -0.140625 C 5.304688 -0.046875 5.191406 0 5.046875 0 C 4.898438 0 4.78125 -0.046875 4.6875 -0.140625 C 4.601562 -0.234375 4.5625 -0.347656 4.5625 -0.484375 L 4.5625 -0.75 C 4.382812 -0.507812 4.144531 -0.304688 3.84375 -0.140625 C 3.539062 0.0234375 3.210938 0.109375 2.859375 0.109375 C 2.398438 0.109375 1.976562 -0.0078125 1.59375 -0.25 C 1.21875 -0.488281 0.921875 -0.816406 0.703125 -1.234375 C 0.492188 -1.660156 0.390625 -2.140625 0.390625 -2.671875 C 0.390625 -3.203125 0.492188 -3.675781 0.703125 -4.09375 C 0.921875 -4.519531 1.21875 -4.851562 1.59375 -5.09375 C 1.96875 -5.332031 2.378906 -5.453125 2.828125 -5.453125 C 3.179688 -5.453125 3.515625 -5.375 3.828125 -5.21875 C 4.140625 -5.070312 4.382812 -4.882812 4.5625 -4.65625 L 4.5625 -4.90625 C 4.5625 -5.039062 4.601562 -5.15625 4.6875 -5.25 C 4.78125 -5.351562 4.898438 -5.40625 5.046875 -5.40625 Z M 2.96875 -0.796875 C 3.289062 -0.796875 3.570312 -0.875 3.8125 -1.03125 C 4.0625 -1.195312 4.253906 -1.421875 4.390625 -1.703125 C 4.535156 -1.992188 4.609375 -2.316406 4.609375 -2.671875 C 4.609375 -3.023438 4.535156 -3.34375 4.390625 -3.625 C 4.253906 -3.914062 4.0625 -4.144531 3.8125 -4.3125 C 3.570312 -4.476562 3.289062 -4.5625 2.96875 -4.5625 C 2.644531 -4.5625 2.359375 -4.476562 2.109375 -4.3125 C 1.867188 -4.144531 1.675781 -3.921875 1.53125 -3.640625 C 1.394531 -3.359375 1.328125 -3.035156 1.328125 -2.671875 C 1.328125 -2.316406 1.394531 -1.992188 1.53125 -1.703125 C 1.675781 -1.421875 1.867188 -1.195312 2.109375 -1.03125 C 2.359375 -0.875 2.644531 -0.796875 2.96875 -0.796875 Z M 2.96875 -0.796875 "/></g></g></g><g fill="#000000" fill-opacity="1"><g transform="translate(185.134599, 67.458094)"><g><path d="M 3.375 -5.453125 C 3.550781 -5.453125 3.703125 -5.40625 3.828125 -5.3125 C 3.960938 -5.21875 4.03125 -5.101562 4.03125 -4.96875 C 4.03125 -4.8125 3.988281 -4.6875 3.90625 -4.59375 C 3.820312 -4.507812 3.71875 -4.46875 3.59375 -4.46875 C 3.53125 -4.46875 3.4375 -4.488281 3.3125 -4.53125 C 3.175781 -4.582031 3.066406 -4.609375 2.984375 -4.609375 C 2.773438 -4.609375 2.566406 -4.535156 2.359375 -4.390625 C 2.160156 -4.242188 2 -4.039062 1.875 -3.78125 C 1.75 -3.53125 1.6875 -3.25 1.6875 -2.9375 L 1.6875 -0.484375 C 1.6875 -0.347656 1.640625 -0.234375 1.546875 -0.140625 C 1.453125 -0.046875 1.335938 0 1.203125 0 C 1.054688 0 0.9375 -0.046875 0.84375 -0.140625 C 0.757812 -0.234375 0.71875 -0.347656 0.71875 -0.484375 L 0.71875 -4.84375 C 0.71875 -4.976562 0.765625 -5.09375 0.859375 -5.1875 C 0.953125 -5.28125 1.066406 -5.328125 1.203125 -5.328125 C 1.335938 -5.328125 1.453125 -5.28125 1.546875 -5.1875 C 1.640625 -5.09375 1.6875 -4.976562 1.6875 -4.84375 L 1.6875 -4.328125 C 1.832031 -4.660156 2.054688 -4.925781 2.359375 -5.125 C 2.660156 -5.332031 3 -5.441406 3.375 -5.453125 Z M 3.375 -5.453125 "/></g></g></g><g fill="#000000" fill-opacity="1"><g transform="translate(195.967134, 67.458094)"><g><path d="M 5.40625 -2.875 C 5.394531 -2.75 5.34375 -2.644531 5.25 -2.5625 C 5.15625 -2.476562 5.039062 -2.4375 4.90625 -2.4375 L 1.328125 -2.4375 C 1.378906 -1.9375 1.566406 -1.535156 1.890625 -1.234375 C 2.222656 -0.941406 2.628906 -0.796875 3.109375 -0.796875 C 3.429688 -0.796875 3.691406 -0.84375 3.890625 -0.9375 C 4.097656 -1.03125 4.28125 -1.148438 4.4375 -1.296875 C 4.539062 -1.359375 4.640625 -1.390625 4.734375 -1.390625 C 4.847656 -1.390625 4.941406 -1.347656 5.015625 -1.265625 C 5.097656 -1.191406 5.140625 -1.097656 5.140625 -0.984375 C 5.140625 -0.835938 5.070312 -0.707031 4.9375 -0.59375 C 4.738281 -0.40625 4.472656 -0.238281 4.140625 -0.09375 C 3.816406 0.0390625 3.488281 0.109375 3.15625 0.109375 C 2.601562 0.109375 2.117188 -0.00390625 1.703125 -0.234375 C 1.285156 -0.472656 0.960938 -0.796875 0.734375 -1.203125 C 0.503906 -1.617188 0.390625 -2.085938 0.390625 -2.609375 C 0.390625 -3.179688 0.503906 -3.679688 0.734375 -4.109375 C 0.972656 -4.546875 1.285156 -4.878906 1.671875 -5.109375 C 2.054688 -5.335938 2.46875 -5.453125 2.90625 -5.453125 C 3.34375 -5.453125 3.75 -5.335938 4.125 -5.109375 C 4.507812 -4.890625 4.816406 -4.582031 5.046875 -4.1875 C 5.273438 -3.789062 5.394531 -3.351562 5.40625 -2.875 Z M 2.90625 -4.5625 C 2.53125 -4.5625 2.203125 -4.453125 1.921875 -4.234375 C 1.640625 -4.023438 1.457031 -3.695312 1.375 -3.25 L 4.375 -3.25 L 4.375 -3.328125 C 4.34375 -3.679688 4.179688 -3.972656 3.890625 -4.203125 C 3.597656 -4.441406 3.269531 -4.5625 2.90625 -4.5625 Z M 2.90625 -4.5625 "/></g></g></g></svg>